<svg width="11" height="13" viewBox="0 0 11 13" fill="none" xmlns="http://www.w3.org/2000/svg">
<g clip-path="url(#clip0)">
<path d="M10.2987 6.07125C10.2987 6.04502 10.2987 6.01521 10.2977 5.98063C10.2966 5.88406 10.2946 5.77556 10.2925 5.6599C10.2841 5.32725 10.2695 4.99578 10.2466 4.6834C10.2153 4.25297 10.1694 3.89408 10.1069 3.62462C10.0408 3.34341 9.91141 3.08694 9.73153 2.88085C9.55165 2.67476 9.32762 2.52626 9.08181 2.45019C8.78671 2.35957 8.20901 2.30354 7.39565 2.26896C7.00879 2.25227 6.59481 2.24154 6.18083 2.23557C6.03588 2.23319 5.90136 2.232 5.7804 2.2308H5.47383C5.35287 2.232 5.21835 2.23319 5.0734 2.23557C4.65942 2.24154 4.24545 2.25227 3.85858 2.26896C3.04522 2.30473 2.46648 2.36077 2.17242 2.45019C1.92653 2.52607 1.70241 2.67451 1.52251 2.88063C1.3426 3.08675 1.21324 3.34332 1.14738 3.62462C1.08377 3.89408 1.03893 4.25297 1.00764 4.6834C0.984703 4.99578 0.970104 5.32725 0.961762 5.6599C0.958634 5.77556 0.957591 5.88406 0.956548 5.98063C0.956548 6.01521 0.955505 6.04502 0.955505 6.07125V6.13802C0.955505 6.16425 0.955505 6.19406 0.956548 6.22864C0.957591 6.32521 0.959676 6.43371 0.961762 6.54937C0.970104 6.88202 0.984703 7.21349 1.00764 7.52587C1.03893 7.9563 1.08481 8.31519 1.14738 8.58465C1.28085 9.15577 1.67293 9.60646 2.17242 9.75908C2.46648 9.84969 3.04522 9.90573 3.85858 9.94031C4.24545 9.957 4.65942 9.96773 5.0734 9.9737C5.21835 9.97608 5.35287 9.97727 5.47383 9.97847H5.7804C5.90136 9.97727 6.03588 9.97608 6.18083 9.9737C6.59481 9.96773 7.00879 9.957 7.39565 9.94031C8.20901 9.90454 8.78775 9.8485 9.08181 9.75908C9.5813 9.60646 9.97338 9.15696 10.1069 8.58465C10.1705 8.31519 10.2153 7.9563 10.2466 7.52587C10.2695 7.21349 10.2841 6.88202 10.2925 6.54937C10.2956 6.43371 10.2966 6.32521 10.2977 6.22864C10.2977 6.19406 10.2987 6.16425 10.2987 6.13802V6.07125ZM9.54793 6.13325C9.54793 6.15829 9.54793 6.18571 9.54689 6.2179C9.54585 6.3109 9.54376 6.41344 9.54167 6.52433C9.53438 6.84149 9.51978 7.15864 9.49788 7.45314C9.46972 7.83707 9.4301 8.15184 9.38109 8.36288C9.31644 8.6383 9.12665 8.8565 8.88681 8.92923C8.66783 8.996 8.11621 9.04965 7.36646 9.08184C6.98689 9.09854 6.57812 9.10927 6.1704 9.11523C6.02754 9.11761 5.89511 9.1188 5.77623 9.1188H5.478L5.08383 9.11523C4.67611 9.10927 4.26839 9.09854 3.88778 9.08184C3.13802 9.04846 2.58536 8.996 2.36742 8.92923C2.12758 8.8553 1.93779 8.6383 1.87314 8.36288C1.82413 8.15184 1.78451 7.83707 1.75635 7.45314C1.73445 7.15864 1.7209 6.84149 1.71256 6.52433C1.70943 6.41344 1.70839 6.30971 1.70734 6.2179C1.70734 6.18571 1.7063 6.1571 1.7063 6.13325V6.07602C1.7063 6.05098 1.7063 6.02356 1.70734 5.99136C1.70839 5.89836 1.71047 5.79582 1.71256 5.68494C1.71986 5.36778 1.73445 5.05063 1.75635 4.75613C1.78451 4.3722 1.82413 4.05743 1.87314 3.84639C1.93779 3.57097 2.12758 3.35277 2.36742 3.28004C2.5864 3.21327 3.13802 3.15962 3.88778 3.12742C4.26734 3.11073 4.67611 3.1 5.08383 3.09404C5.22669 3.09166 5.35912 3.09046 5.478 3.09046H5.77623L6.1704 3.09404C6.57812 3.1 6.98585 3.11073 7.36646 3.12742C8.11621 3.16081 8.66888 3.21327 8.88681 3.28004C9.12665 3.35396 9.31644 3.57097 9.38109 3.84639C9.4301 4.05743 9.46972 4.3722 9.49788 4.75613C9.51978 5.05063 9.53333 5.36778 9.54167 5.68494C9.5448 5.79582 9.54585 5.89956 9.54689 5.99136C9.54689 6.02356 9.54793 6.05217 9.54793 6.07602V6.13325ZM4.69905 7.70234L7.11828 6.09271L4.69905 4.50693V7.70234Z" fill="black"/>
</g>
<defs>
<clipPath id="clip0">
<rect width="10.678" height="12.2093" fill="white" transform="translate(0.288147)"/>
</clipPath>
</defs>
</svg>
