<svg width="11" height="13" viewBox="0 0 11 13" fill="none" xmlns="http://www.w3.org/2000/svg">
<g clip-path="url(#clip0)">
<path d="M10.0037 3.54191C9.70235 3.69055 9.3744 3.79753 9.0366 3.83919C9.38731 3.60095 9.64995 3.22458 9.77523 2.78068C9.44613 3.00453 9.0856 3.1615 8.70963 3.24462C8.5525 3.05255 8.36245 2.89953 8.15133 2.7951C7.94021 2.69068 7.71255 2.63709 7.48252 2.63767C6.55185 2.63767 5.80337 3.50024 5.80337 4.55875C5.80337 4.7074 5.81913 4.85604 5.84474 4.99905C4.45119 4.91572 3.20832 4.15449 2.38204 2.989C2.23149 3.28304 2.15259 3.61783 2.15356 3.95856C2.15356 4.62519 2.45 5.213 2.90204 5.55871C2.63564 5.54671 2.37549 5.46299 2.14273 5.31435V5.338C2.14273 6.27151 2.71984 7.04513 3.489 7.22305C3.34458 7.26594 3.19602 7.28788 3.04681 7.28836C2.93749 7.28836 2.83409 7.27597 2.72969 7.25908C2.94242 8.02031 3.56188 8.57321 4.29952 8.59123C3.72241 9.1081 2.99954 9.41214 2.21462 9.41214C2.07379 9.41214 1.94379 9.40651 1.80887 9.38849C2.55341 9.93464 3.43681 10.2499 4.38816 10.2499C7.47661 10.2499 9.1666 7.32439 9.1666 4.78509C9.1666 4.70177 9.1666 4.61844 9.16167 4.53511C9.48864 4.26147 9.77523 3.92252 10.0037 3.54191Z" fill="black"/>
</g>
<defs>
<clipPath id="clip0">
<rect width="10.0847" height="11.531" fill="white" transform="translate(0.86441 0.678314)"/>
</clipPath>
</defs>
</svg>
