<svg width="16" height="16" viewBox="0 0 16 16" fill="none" xmlns="http://www.w3.org/2000/svg">
<path d="M14.4203 10.9672H5.11561L5.5828 10.0156L13.3453 10.0016C13.6078 10.0016 13.8328 9.81406 13.8797 9.55469L14.9547 3.5375C14.9828 3.37969 14.9406 3.21719 14.8375 3.09375C14.7865 3.033 14.7229 2.98407 14.6512 2.95034C14.5794 2.91661 14.5012 2.8989 14.4219 2.89844L4.54686 2.86562L4.46249 2.46875C4.40936 2.21562 4.18124 2.03125 3.92186 2.03125H1.5078C1.36152 2.03125 1.22122 2.08936 1.11779 2.1928C1.01435 2.29624 0.956238 2.43653 0.956238 2.58281C0.956238 2.7291 1.01435 2.86939 1.11779 2.97283C1.22122 3.07626 1.36152 3.13438 1.5078 3.13438H3.47499L3.84374 4.8875L4.75155 9.28281L3.5828 11.1906C3.52211 11.2725 3.48555 11.3698 3.47726 11.4714C3.46898 11.573 3.4893 11.675 3.53593 11.7656C3.62968 11.9516 3.81874 12.0688 4.02811 12.0688H5.00936C4.80017 12.3466 4.68718 12.685 4.68749 13.0328C4.68749 13.9172 5.40624 14.6359 6.29061 14.6359C7.17499 14.6359 7.89374 13.9172 7.89374 13.0328C7.89374 12.6844 7.77811 12.3453 7.57186 12.0688H10.0891C9.87986 12.3466 9.76687 12.685 9.76717 13.0328C9.76717 13.9172 10.4859 14.6359 11.3703 14.6359C12.2547 14.6359 12.9734 13.9172 12.9734 13.0328C12.9734 12.6844 12.8578 12.3453 12.6516 12.0688H14.4219C14.725 12.0688 14.9734 11.8219 14.9734 11.5172C14.9725 11.3711 14.9139 11.2312 14.8102 11.1282C14.7066 11.0251 14.5664 10.9673 14.4203 10.9672ZM4.77655 3.95312L13.7734 3.98281L12.8922 8.91719L5.82499 8.92969L4.77655 3.95312ZM6.29061 13.5266C6.01874 13.5266 5.79686 13.3047 5.79686 13.0328C5.79686 12.7609 6.01874 12.5391 6.29061 12.5391C6.56249 12.5391 6.78436 12.7609 6.78436 13.0328C6.78436 13.1638 6.73234 13.2894 6.63975 13.3819C6.54715 13.4745 6.42156 13.5266 6.29061 13.5266ZM11.3703 13.5266C11.0984 13.5266 10.8765 13.3047 10.8765 13.0328C10.8765 12.7609 11.0984 12.5391 11.3703 12.5391C11.6422 12.5391 11.864 12.7609 11.864 13.0328C11.864 13.1638 11.812 13.2894 11.7194 13.3819C11.6268 13.4745 11.5013 13.5266 11.3703 13.5266Z" fill="#FFFCFC"/>
</svg>
