<svg width="11" height="13" viewBox="0 0 11 13" fill="none" xmlns="http://www.w3.org/2000/svg">
<path d="M5.72031 4.13427C4.60252 4.13427 3.70041 5.16576 3.70041 6.44385C3.70041 7.72195 4.60252 8.75343 5.72031 8.75343C6.83811 8.75343 7.74022 7.72195 7.74022 6.44385C7.74022 5.16576 6.83811 4.13427 5.72031 4.13427ZM5.72031 7.94491C4.99744 7.94491 4.40752 7.27039 4.40752 6.44385C4.40752 5.61731 4.99744 4.9428 5.72031 4.9428C6.44318 4.9428 7.0331 5.61731 7.0331 6.44385C7.0331 7.27039 6.44318 7.94491 5.72031 7.94491ZM7.82294 3.50142C7.56196 3.50142 7.35121 3.7424 7.35121 4.04081C7.35121 4.33922 7.56196 4.5802 7.82294 4.5802C8.08393 4.5802 8.29468 4.34034 8.29468 4.04081C8.29476 3.96995 8.28261 3.89977 8.25893 3.83429C8.23525 3.76881 8.20051 3.70931 8.15669 3.6592C8.11287 3.6091 8.06083 3.56937 8.00356 3.5423C7.94629 3.51522 7.88492 3.50133 7.82294 3.50142ZM9.6577 6.44385C9.6577 5.82226 9.66262 5.2063 9.63209 4.58583C9.60156 3.86514 9.45778 3.22553 8.99687 2.69853C8.53498 2.1704 7.97658 2.00712 7.34628 1.97221C6.80265 1.9373 6.26394 1.94293 5.7213 1.94293C5.17767 1.94293 4.63896 1.9373 4.09632 1.97221C3.46602 2.00712 2.90663 2.17152 2.44573 2.69853C1.98384 3.22666 1.84104 3.86514 1.81051 4.58583C1.77998 5.20742 1.7849 5.82339 1.7849 6.44385C1.7849 7.06432 1.77998 7.68141 1.81051 8.30188C1.84104 9.02256 1.98482 9.66218 2.44573 10.1892C2.90762 10.7173 3.46602 10.8806 4.09632 10.9155C4.63995 10.9504 5.17865 10.9448 5.7213 10.9448C6.26493 10.9448 6.80364 10.9504 7.34628 10.9155C7.97658 10.8806 8.53597 10.7162 8.99687 10.1892C9.45876 9.66105 9.60156 9.02256 9.63209 8.30188C9.66361 7.68141 9.6577 7.06545 9.6577 6.44385ZM8.79104 9.09914C8.71915 9.30408 8.63248 9.45723 8.49362 9.61488C8.35476 9.77366 8.2218 9.87275 8.04256 9.95495C7.52454 10.1903 6.29447 10.1374 5.72031 10.1374C5.14615 10.1374 3.91511 10.1903 3.39708 9.95608C3.21784 9.87388 3.0839 9.77478 2.94602 9.61601C2.80716 9.45723 2.7205 9.30521 2.6486 9.10026C2.44376 8.50682 2.49004 7.10035 2.49004 6.44385C2.49004 5.78735 2.44376 4.37976 2.6486 3.78744C2.7205 3.5825 2.80716 3.42935 2.94602 3.2717C3.08489 3.11405 3.21784 3.01383 3.39708 2.93163C3.91511 2.6974 5.14615 2.75033 5.72031 2.75033C6.29447 2.75033 7.52552 2.6974 8.04355 2.93163C8.22279 3.01383 8.35673 3.11292 8.4946 3.2717C8.63347 3.43048 8.72013 3.5825 8.79203 3.78744C8.99687 4.37976 8.95058 5.78735 8.95058 6.44385C8.95058 7.10035 8.99687 8.50682 8.79104 9.09914Z" fill="black"/>
</svg>
