<svg width="11" height="13" viewBox="0 0 11 13" fill="none" xmlns="http://www.w3.org/2000/svg">
<path d="M2.58087 4.81102C2.58087 4.41523 2.64138 4.04132 2.76061 3.69234C2.87454 3.35338 3.04379 3.04228 3.25936 2.77562C3.4745 2.51247 3.72068 2.28491 3.99081 2.09953C4.26795 1.90782 4.56799 1.76319 4.88153 1.67017C5.19884 1.5749 5.52559 1.52685 5.85366 1.52722C6.36042 1.52722 6.83203 1.64983 7.26938 1.89401C7.70103 2.13374 8.06843 2.50165 8.33318 2.95927C8.60636 3.42475 8.74205 3.95128 8.74205 4.53834C8.74205 4.89038 8.7118 5.23478 8.64996 5.57155C8.58923 5.90814 8.49271 6.23496 8.36254 6.54474C8.23847 6.84461 8.07624 7.12181 7.88114 7.36734C7.68506 7.60896 7.44759 7.80186 7.18352 7.93405C6.89682 8.07772 6.58667 8.15003 6.27366 8.14619C6.0561 8.14619 5.83898 8.08769 5.62453 7.97017C5.41008 7.85317 5.25614 7.69241 5.1636 7.48638C5.13112 7.62933 5.08663 7.83587 5.02746 8.106C4.97051 8.37562 4.93225 8.54961 4.91534 8.62846C4.89754 8.7068 4.86462 8.83754 4.81657 9.01865C4.78398 9.15261 4.74218 9.28342 4.69155 9.40985L4.5385 9.75273C4.47231 9.89986 4.39831 10.0422 4.31693 10.179C4.2364 10.3123 4.13674 10.4716 4.01795 10.6547L3.95165 10.6817L3.90761 10.6267C3.86 10.0503 3.83553 9.70542 3.83553 9.59147C3.83553 9.25418 3.87068 8.8757 3.94009 8.45549C4.00816 8.0358 4.11583 7.50825 4.26042 6.87388C4.40502 6.24001 4.48778 5.86712 4.51002 5.75673C4.40814 5.51916 4.35653 5.20884 4.35653 4.8273C4.35653 4.52257 4.43972 4.23718 4.60657 3.96858C4.77386 3.70099 4.98519 3.56719 5.24146 3.56719C5.43767 3.56719 5.58983 3.64147 5.69883 3.79052C5.80828 3.93907 5.86167 4.12628 5.86167 4.35469C5.86167 4.59685 5.79138 4.94735 5.64989 5.40571C5.50841 5.86458 5.43811 6.20695 5.43811 6.43434C5.43811 6.66479 5.51019 6.8576 5.65434 7.00869C5.7966 7.15986 5.98473 7.24178 6.1789 7.23711C6.35508 7.23711 6.51837 7.19132 6.67008 7.09924C6.81943 7.00986 6.9487 6.88225 7.04782 6.72635C7.2637 6.38769 7.4176 6.00271 7.5003 5.59445C7.54301 5.37977 7.57593 5.17577 7.5964 4.98398C7.6182 4.79118 7.62754 4.60905 7.62754 4.43609C7.62754 3.80171 7.45136 3.30724 7.10121 2.95317C6.74928 2.5991 6.29102 2.42308 5.72731 2.42308C5.08619 2.42308 4.55006 2.66014 4.12072 3.1358C3.69093 3.60993 3.4747 4.21276 3.4747 4.94379C3.4747 5.10506 3.49606 5.26073 3.53655 5.41131C3.57614 5.56138 3.6193 5.68093 3.66602 5.76945C3.71229 5.85644 3.75589 5.94139 3.79549 6.01974C3.83553 6.09808 3.85644 6.15404 3.85644 6.18761C3.85644 6.29038 3.83286 6.42417 3.78525 6.5895C3.73587 6.75484 3.67759 6.83725 3.60729 6.83725C3.60061 6.83725 3.57303 6.83166 3.52498 6.81996C3.35856 6.76315 3.20828 6.65695 3.08941 6.51218C2.96325 6.36213 2.86368 6.18558 2.79621 5.99227C2.72893 5.79964 2.67652 5.60065 2.6396 5.39757C2.5997 5.20542 2.57999 5.00851 2.58087 4.81102Z" fill="black"/>
</svg>
