<svg width="12" height="14" viewBox="0 0 12 14" fill="none" xmlns="http://www.w3.org/2000/svg">
<g clip-path="url(#clip0)">
<path d="M8.48376 7.16221C8.31175 6.95039 8.14434 6.73249 7.98172 6.50876C7.84509 6.33029 7.76283 6.20045 7.76283 6.20045L6.7345 5.56919C7.14619 4.96893 7.37341 4.19619 7.37353 3.39592C7.37353 1.57391 6.22033 0.0909119 4.8027 0.0909119C3.38507 0.0909119 2.23187 1.57391 2.23187 3.39592C2.23187 5.21792 3.38507 6.70092 4.8027 6.70092C5.45018 6.70092 6.04037 6.38931 6.49321 5.87986L6.98423 7.20187C6.98423 7.20187 7.08523 7.30763 7.22406 7.48326C7.36619 7.65465 7.55312 7.88647 7.73234 8.12868L8.23109 8.78591L8.45291 9.09091L9.23187 8.0895L8.99462 7.80432C8.85543 7.62868 8.6696 7.39544 8.48376 7.16221ZM4.8027 5.75663C3.79016 5.75663 2.9664 4.69762 2.9664 3.39592C2.9664 2.09422 3.79016 1.0352 4.8027 1.0352C5.81524 1.0352 6.63901 2.09422 6.63901 3.39592C6.63901 4.69762 5.81524 5.75663 4.8027 5.75663Z" fill="#FCFCFC"/>
</g>
<defs>
<clipPath id="clip0">
<rect width="10.8387" height="13.9355" fill="white" transform="translate(0.404907 0.0645142)"/>
</clipPath>
</defs>
</svg>
