<svg width="381" height="46" viewBox="0 0 381 46" fill="none" xmlns="http://www.w3.org/2000/svg">
<rect width="381" height="46" rx="20" fill="#3B516C"/>
<path d="M49.2578 27.6157C48.8721 28.1187 48.3374 28.4995 47.6538 28.7583C46.9702 29.0171 46.1938 29.1465 45.3247 29.1465C44.4312 29.1465 43.6401 28.9438 42.9517 28.5386C42.2632 28.1333 41.731 27.5547 41.355 26.8027C40.9839 26.0459 40.791 25.1646 40.7764 24.1587V23.3237C40.7764 21.7124 41.1621 20.4551 41.9336 19.5518C42.7051 18.6436 43.7817 18.1895 45.1636 18.1895C46.3501 18.1895 47.2925 18.4824 47.9907 19.0684C48.689 19.6543 49.1089 20.499 49.2505 21.6025H47.4341C47.229 20.3184 46.4844 19.6763 45.2002 19.6763C44.3701 19.6763 43.7378 19.9766 43.3032 20.5771C42.8735 21.1729 42.6514 22.0493 42.6367 23.2065V24.0269C42.6367 25.1792 42.8784 26.0752 43.3618 26.7148C43.8501 27.3496 44.5264 27.667 45.3906 27.667C46.3379 27.667 47.0117 27.4521 47.4121 27.0225V24.9351H45.2148V23.5288H49.2578V27.6157ZM59.0942 18.3359V25.4624C59.0942 26.5952 58.7305 27.4937 58.0029 28.1577C57.2803 28.8169 56.3159 29.1465 55.1099 29.1465C53.8892 29.1465 52.9199 28.8218 52.2021 28.1724C51.4844 27.5181 51.1255 26.6123 51.1255 25.4551V18.3359H52.9712V25.4697C52.9712 26.1826 53.1519 26.7271 53.5132 27.103C53.8745 27.479 54.4067 27.667 55.1099 27.667C56.5356 27.667 57.2485 26.915 57.2485 25.4111V18.3359H59.0942ZM66.8872 26.5171H62.7563L61.8921 29H59.9658L63.9941 18.3359H65.6567L69.6924 29H67.7588L66.8872 26.5171ZM63.2764 25.0229H66.3672L64.8218 20.5991L63.2764 25.0229ZM74.8267 24.8911H72.7612V29H70.9082V18.3359H74.6582C75.8887 18.3359 76.8384 18.6118 77.5073 19.1636C78.1763 19.7153 78.5107 20.5137 78.5107 21.5586C78.5107 22.2715 78.3374 22.8696 77.9907 23.353C77.6489 23.8315 77.1704 24.2002 76.5552 24.459L78.9502 28.9048V29H76.9653L74.8267 24.8911ZM72.7612 23.4043H74.6655C75.2905 23.4043 75.7788 23.248 76.1304 22.9355C76.4819 22.6182 76.6577 22.186 76.6577 21.6392C76.6577 21.0679 76.4941 20.626 76.167 20.3135C75.8447 20.001 75.3613 19.8398 74.7168 19.8301H72.7612V23.4043ZM80.2686 29V18.3359H83.418C84.3604 18.3359 85.1953 18.5459 85.9229 18.9658C86.6553 19.3857 87.2217 19.9814 87.6221 20.7529C88.0225 21.5244 88.2227 22.4082 88.2227 23.4043V23.939C88.2227 24.9497 88.02 25.8384 87.6147 26.605C87.2144 27.3716 86.6406 27.9624 85.8936 28.3774C85.1514 28.7925 84.2993 29 83.3374 29H80.2686ZM82.1216 19.8301V27.5205H83.3301C84.3018 27.5205 85.0464 27.2178 85.564 26.6123C86.0864 26.002 86.3525 25.1279 86.3623 23.9902V23.397C86.3623 22.2397 86.1108 21.356 85.6079 20.7456C85.105 20.1353 84.375 19.8301 83.418 19.8301H82.1216ZM95.8765 26.5171H91.7456L90.8813 29H88.9551L92.9834 18.3359H94.646L98.6816 29H96.748L95.8765 26.5171ZM92.2656 25.0229H95.3564L93.811 20.5991L92.2656 25.0229ZM103.816 24.8911H101.75V29H99.8975V18.3359H103.647C104.878 18.3359 105.828 18.6118 106.497 19.1636C107.166 19.7153 107.5 20.5137 107.5 21.5586C107.5 22.2715 107.327 22.8696 106.98 23.353C106.638 23.8315 106.16 24.2002 105.544 24.459L107.939 28.9048V29H105.955L103.816 24.8911ZM101.75 23.4043H103.655C104.28 23.4043 104.768 23.248 105.12 22.9355C105.471 22.6182 105.647 22.186 105.647 21.6392C105.647 21.0679 105.483 20.626 105.156 20.3135C104.834 20.001 104.351 19.8398 103.706 19.8301H101.75V23.4043ZM116.472 23.3896L118.926 18.3359H120.977L117.402 25.0742V29H115.542V25.0742L111.96 18.3359H114.019L116.472 23.3896ZM134.006 25.5283C133.899 26.666 133.479 27.5547 132.747 28.1943C132.014 28.8291 131.04 29.1465 129.824 29.1465C128.975 29.1465 128.225 28.9463 127.576 28.5459C126.931 28.1406 126.433 27.5669 126.082 26.8247C125.73 26.0825 125.547 25.2207 125.532 24.2393V23.2432C125.532 22.2373 125.71 21.3511 126.067 20.5845C126.423 19.8179 126.934 19.2271 127.598 18.812C128.267 18.397 129.038 18.1895 129.912 18.1895C131.089 18.1895 132.036 18.5093 132.754 19.1489C133.472 19.7886 133.889 20.6919 134.006 21.8589H132.161C132.073 21.0923 131.848 20.5405 131.487 20.2036C131.13 19.8618 130.605 19.6909 129.912 19.6909C129.106 19.6909 128.486 19.9863 128.052 20.5771C127.622 21.1631 127.402 22.0249 127.393 23.1626V24.1074C127.393 25.2598 127.598 26.1387 128.008 26.7441C128.423 27.3496 129.028 27.6523 129.824 27.6523C130.552 27.6523 131.099 27.4888 131.465 27.1616C131.831 26.8345 132.063 26.29 132.161 25.5283H134.006ZM144.18 23.9463C144.18 24.9912 143.999 25.9092 143.638 26.7002C143.276 27.4863 142.759 28.0918 142.085 28.5166C141.416 28.9365 140.645 29.1465 139.771 29.1465C138.906 29.1465 138.135 28.9365 137.456 28.5166C136.782 28.0918 136.26 27.4888 135.889 26.7075C135.522 25.9263 135.337 25.0254 135.332 24.0049V23.4043C135.332 22.3643 135.515 21.4463 135.881 20.6504C136.252 19.8545 136.772 19.2466 137.441 18.8267C138.115 18.4019 138.887 18.1895 139.756 18.1895C140.625 18.1895 141.394 18.3994 142.063 18.8193C142.737 19.2344 143.257 19.835 143.623 20.6211C143.989 21.4023 144.175 22.313 144.18 23.353V23.9463ZM142.327 23.3896C142.327 22.208 142.102 21.3022 141.653 20.6724C141.208 20.0425 140.576 19.7275 139.756 19.7275C138.955 19.7275 138.328 20.0425 137.874 20.6724C137.424 21.2974 137.195 22.1836 137.185 23.3311V23.9463C137.185 25.1182 137.412 26.0239 137.866 26.6636C138.325 27.3032 138.96 27.623 139.771 27.623C140.591 27.623 141.221 27.3105 141.66 26.6855C142.104 26.0605 142.327 25.1475 142.327 23.9463V23.3896ZM154.485 29H152.632L147.878 21.4341V29H146.025V18.3359H147.878L152.646 25.9312V18.3359H154.485V29ZM164.16 19.8301H160.835V29H158.997V19.8301H155.701V18.3359H164.16V19.8301ZM167.522 29H165.676V18.3359H167.522V29ZM178.259 29H176.406L171.653 21.4341V29H169.8V18.3359H171.653L176.421 25.9312V18.3359H178.259V29ZM188.25 18.3359V25.4624C188.25 26.5952 187.886 27.4937 187.158 28.1577C186.436 28.8169 185.471 29.1465 184.265 29.1465C183.044 29.1465 182.075 28.8218 181.357 28.1724C180.64 27.5181 180.281 26.6123 180.281 25.4551V18.3359H182.126V25.4697C182.126 26.1826 182.307 26.7271 182.668 27.103C183.03 27.479 183.562 27.667 184.265 27.667C185.691 27.667 186.404 26.915 186.404 25.4111V18.3359H188.25ZM196.042 26.5171H191.912L191.047 29H189.121L193.149 18.3359H194.812L198.848 29H196.914L196.042 26.5171ZM192.432 25.0229H195.522L193.977 20.5991L192.432 25.0229ZM203.982 24.8911H201.917V29H200.063V18.3359H203.813C205.044 18.3359 205.994 18.6118 206.663 19.1636C207.332 19.7153 207.666 20.5137 207.666 21.5586C207.666 22.2715 207.493 22.8696 207.146 23.353C206.804 23.8315 206.326 24.2002 205.71 24.459L208.105 28.9048V29H206.121L203.982 24.8911ZM201.917 23.4043H203.821C204.446 23.4043 204.934 23.248 205.286 22.9355C205.637 22.6182 205.813 22.186 205.813 21.6392C205.813 21.0679 205.649 20.626 205.322 20.3135C205 20.001 204.517 19.8398 203.872 19.8301H201.917V23.4043Z" fill="white"/>
<path d="M360 16.5L358.659 17.8059L363.891 23.0625H352.5V24.9375H363.891L358.659 30.1622L360 31.5L367.5 24L360 16.5Z" fill="#FFFBFB"/>
<path d="M360 37.125C357.404 37.125 354.867 36.3552 352.708 34.913C350.55 33.4709 348.867 31.421 347.874 29.0227C346.881 26.6244 346.621 23.9854 347.127 21.4394C347.634 18.8934 348.884 16.5548 350.719 14.7192C352.555 12.8837 354.893 11.6336 357.439 11.1272C359.985 10.6208 362.624 10.8807 365.023 11.8741C367.421 12.8675 369.471 14.5498 370.913 16.7081C372.355 18.8665 373.125 21.4041 373.125 24C373.121 27.4798 371.737 30.8158 369.276 33.2764C366.816 35.737 363.48 37.121 360 37.125ZM360 12.75C357.775 12.75 355.6 13.4098 353.75 14.646C351.9 15.8821 350.458 17.6391 349.606 19.6948C348.755 21.7505 348.532 24.0125 348.966 26.1948C349.4 28.3771 350.472 30.3816 352.045 31.955C353.618 33.5283 355.623 34.5998 357.805 35.0338C359.988 35.4679 362.25 35.2451 364.305 34.3937C366.361 33.5422 368.118 32.1002 369.354 30.2502C370.59 28.4001 371.25 26.225 371.25 24C371.247 21.0174 370.06 18.1579 367.951 16.0489C365.842 13.9399 362.983 12.7535 360 12.75Z" fill="white"/>
</svg>
