<svg width="14" height="9" viewBox="0 0 14 9" fill="none" xmlns="http://www.w3.org/2000/svg">
<path d="M13.0622 8.98128H0.884398C0.412227 8.98128 0.0146484 8.65449 0.0146484 8.24337V0.780144C0.0145938 0.379551 0.399758 0.0422363 0.884398 0.0422363H13.0622C13.5344 0.0422363 13.9321 0.36902 13.9321 0.780144V8.24337C13.9321 8.65449 13.5469 8.98128 13.0622 8.98128Z" fill="#E3E3E3"/>
<path opacity="0.1" d="M1.75328 8.9812L6.95991 5.42875L6.99721 5.23901L1.62903 1.96069L1.61656 8.8231L1.75328 8.9812Z" fill="#231F20"/>
<path d="M0.884392 8.98127C0.399751 8.98127 0.0145874 8.65448 0.0145874 8.24336V0.769555C0.0145874 0.358477 0.399751 0.284668 0.884392 0.284668C1.36903 0.284668 1.75425 0.369008 1.75425 0.769555V8.98127H0.884392Z" fill="#D54B3D"/>
<path d="M0.884398 0.39007C1.5057 0.39007 1.63001 0.54822 1.63001 0.769555V8.87586H0.884398C0.474352 8.87586 0.138844 8.59125 0.138844 8.24336V0.769555C0.138844 0.537642 0.263094 0.39007 0.884398 0.39007ZM0.884398 0.284668C0.399758 0.284668 0.0146484 0.369008 0.0146484 0.769555V8.24341C0.0146484 8.65453 0.399813 8.98131 0.884453 8.98131H1.75426V0.769555C1.75426 0.358477 1.36904 0.284668 0.884398 0.284668Z" fill="#D72B27"/>
<path d="M13.0612 8.98127H12.1914V0.748493C12.1914 0.337369 12.5766 0.284668 13.0612 0.284668C13.5459 0.284668 13.9311 0.337369 13.9311 0.748493V8.25394C13.9311 8.65448 13.5459 8.98127 13.0612 8.98127Z" fill="#D54B3D"/>
<path d="M13.0612 0.39007C13.6204 0.39007 13.8068 0.484941 13.8068 0.748493V8.25394C13.8068 8.60178 13.4713 8.8864 13.0612 8.8864H12.3156V0.748493C12.3156 0.47441 12.5021 0.39007 13.0612 0.39007ZM13.0612 0.284668C12.5766 0.284668 12.1914 0.337369 12.1914 0.748493V8.99184H13.0612C13.5459 8.99184 13.9311 8.66501 13.9311 8.25394V0.748493C13.9311 0.337369 13.5459 0.284668 13.0612 0.284668Z" fill="#D72B27"/>
<path d="M9.33336 8.98126L0.0864105 1.07611L0.572801 1.24391L7.00963 5.17584L13.9311 0.870361V8.25393C13.9311 8.65448 13.5459 8.98126 13.0612 8.98126H9.33336Z" fill="url(#paint0_linear)"/>
<path d="M6.95992 5.42864L0.386375 1.38077C0.00115586 1.13833 -0.11068 0.674504 0.175117 0.34772C0.461023 0.0209368 1.02015 -0.052826 1.41778 0.189617L6.97239 3.61556L12.5641 0.147401C12.9494 -0.0950425 13.4961 -0.0212333 13.7819 0.316081C14.0677 0.642865 13.9808 1.10669 13.5831 1.34913L6.95987 5.42859L6.95992 5.42864Z" fill="#D54B3D"/>
<path d="M13.0621 0.105402C13.2982 0.105402 13.5218 0.200273 13.671 0.368907C13.9071 0.653567 13.8325 1.04358 13.5094 1.25443L6.96075 5.3023L0.4618 1.2966C0.126292 1.08575 0.039284 0.68516 0.27537 0.411124C0.412089 0.252974 0.648175 0.147619 0.896675 0.147619C1.05822 0.147619 1.21977 0.189742 1.34402 0.274082L6.88621 3.68944L6.96075 3.73166L7.03529 3.68944L12.6147 0.221381C12.7514 0.147619 12.9005 0.105402 13.0621 0.105402ZM13.0621 0C12.8881 0 12.7017 0.0421701 12.5526 0.137041L6.96075 3.6051L1.40614 0.179211C1.25712 0.0843402 1.07075 0.0421701 0.884315 0.0421701C0.610933 0.0421701 0.33755 0.147572 0.163589 0.347892C-0.109794 0.674629 0.00204184 1.13845 0.387261 1.3809L6.96081 5.43934L13.5715 1.3493C13.9568 1.10686 14.0438 0.653567 13.7704 0.316253C13.5964 0.105402 13.3355 0 13.0621 0Z" fill="#D72B27"/>
<defs>
<linearGradient id="paint0_linear" x1="0.0869643" y1="4.92565" x2="13.9355" y2="4.92565" gradientUnits="userSpaceOnUse">
<stop stop-opacity="0.1"/>
<stop offset="1" stop-opacity="0.2"/>
</linearGradient>
</defs>
</svg>
