<svg width="16" height="16" viewBox="0 0 16 16" fill="none" xmlns="http://www.w3.org/2000/svg">
<path d="M8 16C6.91667 16 5.88021 15.7891 4.89062 15.3672C3.90104 14.9453 3.04948 14.3776 2.33594 13.6641C1.6224 12.9505 1.05469 12.099 0.632812 11.1094C0.210938 10.1198 0 9.08333 0 8C0 6.91667 0.210938 5.88021 0.632812 4.89062C1.05469 3.90104 1.6224 3.04948 2.33594 2.33594C3.04948 1.6224 3.90104 1.05469 4.89062 0.632812C5.88021 0.210938 6.91667 0 8 0C9.08333 0 10.1198 0.210938 11.1094 0.632812C12.099 1.05469 12.9505 1.6224 13.6641 2.33594C14.3776 3.04948 14.9453 3.90104 15.3672 4.89062C15.7891 5.88021 16 6.91667 16 8C16 9.08333 15.7891 10.1198 15.3672 11.1094C14.9453 12.099 14.3776 12.9505 13.6641 13.6641C12.9505 14.3776 12.099 14.9453 11.1094 15.3672C10.1198 15.7891 9.08333 16 8 16ZM12 5C12 4.72917 11.9036 4.49479 11.7109 4.29688C11.5182 4.09896 11.2812 4 11 4H5C4.72917 4 4.49479 4.09896 4.29688 4.29688C4.09896 4.49479 4 4.72917 4 5V6H5.78125C6.38542 5.33333 7.125 5 8 5C8.875 5 9.61458 5.33333 10.2188 6H12V5ZM6 8C6 8.55208 6.19531 9.02344 6.58594 9.41406C6.97656 9.80469 7.44792 10 8 10C8.55208 10 9.02344 9.80469 9.41406 9.41406C9.80469 9.02344 10 8.55208 10 8C10 7.44792 9.80469 6.97656 9.41406 6.58594C9.02344 6.19531 8.55208 6 8 6C7.44792 6 6.97656 6.19531 6.58594 6.58594C6.19531 6.97656 6 7.44792 6 8ZM12 7H10.8125C10.9375 7.34375 11 7.67708 11 8C11 8.83333 10.7083 9.54167 10.125 10.125C9.54167 10.7083 8.83333 11 8 11C7.16667 11 6.45833 10.7083 5.875 10.125C5.29167 9.54167 5 8.83333 5 8C5 7.67708 5.0625 7.34375 5.1875 7H4V11C4 11.2812 4.09635 11.5182 4.28906 11.7109C4.48177 11.9036 4.71875 12 5 12H11C11.2812 12 11.5182 11.9036 11.7109 11.7109C11.9036 11.5182 12 11.2812 12 11V7Z" fill="#FFFBFB"/>
</svg>
