<svg width="14" height="6" viewBox="0 0 14 6" fill="none" xmlns="http://www.w3.org/2000/svg">
<path d="M13.0621 0.105402C13.2982 0.105402 13.5218 0.200273 13.671 0.368907C13.9071 0.653567 13.8325 1.04358 13.5094 1.25443L6.96075 5.3023L0.4618 1.2966C0.126292 1.08575 0.039284 0.68516 0.27537 0.411124C0.412089 0.252974 0.648175 0.147619 0.896675 0.147619C1.05822 0.147619 1.21977 0.189742 1.34402 0.274082L6.88621 3.68944L6.96075 3.73166L7.03529 3.68944L12.6147 0.221381C12.7514 0.147619 12.9005 0.105402 13.0621 0.105402ZM13.0621 0C12.8881 0 12.7017 0.0421701 12.5526 0.137041L6.96075 3.6051L1.40614 0.179211C1.25712 0.0843402 1.07075 0.0421701 0.884315 0.0421701C0.610933 0.0421701 0.33755 0.147572 0.163589 0.347892C-0.109794 0.674629 0.00204184 1.13845 0.387261 1.3809L6.96081 5.43934L13.5715 1.3493C13.9568 1.10686 14.0438 0.653567 13.7704 0.316253C13.5964 0.105402 13.3355 0 13.0621 0Z" fill="#D72B27"/>
</svg>
