<svg width="22" height="22" viewBox="0 0 22 22" fill="none" xmlns="http://www.w3.org/2000/svg">
<path d="M11 1.375C5.68477 1.375 1.375 5.68477 1.375 11C1.375 16.3152 5.68477 20.625 11 20.625C16.3152 20.625 20.625 16.3152 20.625 11C20.625 5.68477 16.3152 1.375 11 1.375ZM15.6256 8.63027C15.632 8.73125 15.632 8.83652 15.632 8.93965C15.632 12.0936 13.2301 15.7266 8.84082 15.7266C7.4873 15.7266 6.23262 15.3334 5.17559 14.6566C5.36895 14.6781 5.55371 14.6867 5.75137 14.6867C6.86856 14.6867 7.89551 14.3086 8.71406 13.6684C7.66563 13.6469 6.78477 12.9594 6.48398 12.0141C6.85137 12.0678 7.18223 12.0678 7.56035 11.9711C7.02051 11.8614 6.53528 11.5682 6.18711 11.1413C5.83893 10.7144 5.64929 10.1802 5.65039 9.6293V9.59922C5.96621 9.77754 6.33789 9.88711 6.72676 9.90215C6.39986 9.68429 6.13177 9.38912 5.94625 9.04284C5.76074 8.69655 5.66355 8.30984 5.66328 7.91699C5.66328 7.47227 5.7793 7.06621 5.9877 6.71387C6.5869 7.4515 7.33462 8.0548 8.18225 8.48454C9.02988 8.91427 9.95845 9.16084 10.9076 9.2082C10.5703 7.58613 11.782 6.27344 13.2387 6.27344C13.9262 6.27344 14.5449 6.56133 14.9811 7.02539C15.5203 6.92441 16.0359 6.72246 16.4957 6.45176C16.3174 7.00391 15.9436 7.47012 15.4473 7.76445C15.9285 7.71289 16.3926 7.57969 16.8223 7.39277C16.4979 7.86973 16.0918 8.29297 15.6256 8.63027Z" fill="#FFFBFB"/>
</svg>
