<svg width="15" height="15" viewBox="0 0 15 15" fill="none" xmlns="http://www.w3.org/2000/svg">
<path d="M10.225 8.75C10.275 8.3375 10.3125 7.925 10.3125 7.5C10.3125 7.075 10.275 6.6625 10.225 6.25H12.3375C12.4375 6.65 12.5 7.06875 12.5 7.5C12.5 7.93125 12.4375 8.35 12.3375 8.75H10.225ZM9.11875 12.225C9.49375 11.5312 9.78125 10.7812 9.98125 10H11.825C11.2195 11.0427 10.2588 11.8325 9.11875 12.225ZM8.9625 8.75H6.0375C5.975 8.3375 5.9375 7.925 5.9375 7.5C5.9375 7.075 5.975 6.65625 6.0375 6.25H8.9625C9.01875 6.65625 9.0625 7.075 9.0625 7.5C9.0625 7.925 9.01875 8.3375 8.9625 8.75ZM7.5 12.475C6.98125 11.725 6.5625 10.8938 6.30625 10H8.69375C8.4375 10.8938 8.01875 11.725 7.5 12.475ZM5 5H3.175C3.77428 3.95451 4.73425 3.16343 5.875 2.775C5.5 3.46875 5.21875 4.21875 5 5ZM3.175 10H5C5.21875 10.7812 5.5 11.5312 5.875 12.225C4.73664 11.8323 3.77803 11.0423 3.175 10ZM2.6625 8.75C2.5625 8.35 2.5 7.93125 2.5 7.5C2.5 7.06875 2.5625 6.65 2.6625 6.25H4.775C4.725 6.6625 4.6875 7.075 4.6875 7.5C4.6875 7.925 4.725 8.3375 4.775 8.75H2.6625ZM7.5 2.51875C8.01875 3.26875 8.4375 4.10625 8.69375 5H6.30625C6.5625 4.10625 6.98125 3.26875 7.5 2.51875ZM11.825 5H9.98125C9.78564 4.22591 9.49598 3.47868 9.11875 2.775C10.2688 3.16875 11.225 3.9625 11.825 5ZM7.5 1.25C4.04375 1.25 1.25 4.0625 1.25 7.5C1.25 9.1576 1.90848 10.7473 3.08058 11.9194C3.66095 12.4998 4.34994 12.9602 5.10823 13.2742C5.86651 13.5883 6.67924 13.75 7.5 13.75C9.1576 13.75 10.7473 13.0915 11.9194 11.9194C13.0915 10.7473 13.75 9.1576 13.75 7.5C13.75 6.67924 13.5883 5.86651 13.2742 5.10823C12.9602 4.34994 12.4998 3.66095 11.9194 3.08058C11.3391 2.50022 10.6501 2.03984 9.89177 1.72575C9.13349 1.41166 8.32076 1.25 7.5 1.25Z" fill="white"/>
</svg>
