<svg width="15" height="15" viewBox="0 0 15 15" fill="none" xmlns="http://www.w3.org/2000/svg">
<g clip-path="url(#clip0)">
<g filter="url(#filter0_f)">
<path d="M0.368958 14.6499L1.37413 10.9966C0.756086 9.92754 0.426672 8.71318 0.430071 7.47174C0.430071 3.58154 3.60866 0.418701 7.51406 0.418701C9.40898 0.418701 11.1885 1.15277 12.5231 2.48555C13.8611 3.81833 14.598 5.5909 14.5946 7.47512C14.5946 11.3653 11.416 14.5282 7.51066 14.5282H7.50726C6.32208 14.5282 5.15724 14.2305 4.12148 13.6689L0.368958 14.6499ZM4.29808 12.3902L4.512 12.5188C5.41534 13.0533 6.45111 13.334 7.50726 13.3374H7.51066C10.7538 13.3374 13.3958 10.709 13.3958 7.47512C13.3958 5.90888 12.7846 4.43742 11.6741 3.32783C10.5636 2.21829 9.08296 1.60942 7.51066 1.60942C4.26409 1.60942 1.62204 4.23781 1.62204 7.47168C1.62204 8.57788 1.93107 9.65695 2.52198 10.5906L2.6612 10.8139L2.06695 12.9755L4.29808 12.3902Z" fill="black" fill-opacity="0.24"/>
</g>
<path d="M0.690292 14.2728L1.64947 10.7884C1.05802 9.76632 0.746881 8.60728 0.747304 7.4276C0.747304 3.71933 3.77918 0.702637 7.49848 0.702637C9.30621 0.702637 10.9999 1.40419 12.2743 2.67365C13.5487 3.94316 14.2498 5.63361 14.2498 7.43092C14.2498 11.1391 11.2179 14.1558 7.49854 14.1558H7.4952C6.36492 14.1558 5.2548 13.8719 4.26879 13.3374L0.690292 14.2729V14.2728Z" fill="url(#paint0_linear)"/>
<path d="M0.445496 14.5167L1.43819 10.9087C0.82782 9.85303 0.502449 8.65368 0.505847 7.42764C0.505847 3.58578 3.64501 0.462158 7.50194 0.462158C9.37331 0.462158 11.1306 1.18706 12.4488 2.50333C13.7701 3.81959 14.4979 5.57015 14.4946 7.43097C14.4946 11.2728 11.3554 14.3965 7.49848 14.3965H7.4952C6.32698 14.396 5.17746 14.1043 4.15143 13.5479L0.445496 14.5167V14.5167ZM4.32581 12.2851L4.5371 12.412C5.42924 12.9399 6.45212 13.2172 7.4952 13.2205H7.49854C10.7014 13.2205 13.3107 10.6247 13.3107 7.43097C13.3107 5.88422 12.707 4.43097 11.6103 3.33521C10.5136 2.23945 9.05133 1.63811 7.49854 1.63811C4.29229 1.63811 1.68305 4.23387 1.68305 7.42764C1.68305 8.52008 1.98821 9.58578 2.5718 10.5078L2.70932 10.7283L2.12239 12.863L4.32581 12.2851Z" fill="white"/>
<path d="M5.75122 4.51106C5.62038 4.2204 5.48286 4.21368 5.35882 4.21036C5.25821 4.20703 5.14085 4.20703 5.02342 4.20703C4.90606 4.20703 4.71821 4.25046 4.55725 4.42415C4.39624 4.59791 3.94682 5.01884 3.94682 5.87746C3.94682 6.73263 4.57401 7.56114 4.6612 7.67804C4.74839 7.79501 5.87192 9.60902 7.64608 10.3072C9.12177 10.8886 9.42364 10.7716 9.74222 10.7415C10.0642 10.7115 10.7752 10.3206 10.9228 9.91304C11.067 9.50548 11.067 9.15802 11.0234 9.08454C10.9798 9.011 10.8624 8.96764 10.688 8.88073C10.5136 8.79388 9.65503 8.37295 9.49407 8.31283C9.33305 8.25271 9.21569 8.22598 9.10167 8.39968C8.98425 8.57337 8.64891 8.96425 8.54825 9.08121C8.44764 9.19812 8.3437 9.21149 8.16927 9.12464C7.99489 9.03779 7.43145 8.854 6.76407 8.25937C6.24423 7.79833 5.89208 7.22705 5.79141 7.05335C5.69081 6.87966 5.78139 6.78604 5.86858 6.69925C5.94569 6.62238 6.04296 6.49544 6.1302 6.39522C6.21739 6.29501 6.24757 6.22153 6.30458 6.10456C6.36159 5.98765 6.33475 5.88744 6.29116 5.80059C6.24757 5.71369 5.9055 4.85512 5.75122 4.51106Z" fill="white"/>
</g>
<defs>
<filter id="filter0_f" x="-5.63104" y="-5.5813" width="26.2257" height="26.2312" filterUnits="userSpaceOnUse" color-interpolation-filters="sRGB">
<feFlood flood-opacity="0" result="BackgroundImageFix"/>
<feBlend mode="normal" in="SourceGraphic" in2="BackgroundImageFix" result="shape"/>
<feGaussianBlur stdDeviation="3" result="effect1_foregroundBlur"/>
</filter>
<linearGradient id="paint0_linear" x1="7.46976" y1="14.2719" x2="7.46976" y2="0.701822" gradientUnits="userSpaceOnUse">
<stop stop-color="#20B038"/>
<stop offset="1" stop-color="#60D66A"/>
</linearGradient>
<clipPath id="clip0">
<rect width="15" height="15" fill="white"/>
</clipPath>
</defs>
</svg>
