<svg width="12" height="10" viewBox="0 0 12 10" fill="none" xmlns="http://www.w3.org/2000/svg">
<g clip-path="url(#clip0)">
<g filter="url(#filter0_f)">
<path d="M0.295166 9.36639L1.09931 7.1234C0.604869 6.46707 0.341338 5.72151 0.344057 4.95932C0.344057 2.57093 2.88693 0.629089 6.01124 0.629089C7.52718 0.629089 8.95078 1.07977 10.0185 1.89804C11.0889 2.7163 11.6784 3.80458 11.6757 4.9614C11.6757 7.34977 9.13279 9.29164 6.00853 9.29164H6.00581C5.05767 9.29164 4.12579 9.10889 3.29718 8.76409L0.295166 9.36639ZM3.43846 7.97904L3.6096 8.05799C4.33228 8.38612 5.16088 8.55848 6.00581 8.56056H6.00853C8.60306 8.56056 10.7167 6.94685 10.7167 4.9614C10.7167 3.9998 10.2277 3.09639 9.33928 2.41516C8.4509 1.73395 7.26637 1.36014 6.00853 1.36014C3.41128 1.36014 1.29763 2.97384 1.29763 4.95929C1.29763 5.63845 1.54485 6.30094 2.01759 6.87418L2.12896 7.01124L1.65356 8.33835L3.43846 7.97904V7.97904Z" fill="black" fill-opacity="0.24"/>
</g>
<path d="M0.552246 9.13488L1.31959 6.9956C0.846425 6.36812 0.597517 5.65652 0.597855 4.93225C0.597855 2.65555 3.02336 0.803436 5.99879 0.803436C7.44498 0.803436 8.79995 1.23416 9.81948 2.01355C10.839 2.79297 11.3998 3.83082 11.3998 4.93429C11.3998 7.21096 8.97432 9.06307 5.99884 9.06307H5.99617C5.09195 9.06307 4.20386 8.88874 3.41504 8.56057L0.552246 9.13492V9.13488Z" fill="url(#paint0_linear)"/>
<path d="M0.356384 9.28459L1.15054 7.06945C0.662244 6.42132 0.401947 5.68497 0.404666 4.93225C0.404666 2.57352 2.91599 0.655762 6.00154 0.655762C7.49863 0.655762 8.90451 1.10082 9.95901 1.90894C11.0161 2.71707 11.5983 3.79183 11.5956 4.93429C11.5956 7.29302 9.08432 9.21077 5.99877 9.21077H5.99615C5.06157 9.21049 4.14196 9.03139 3.32113 8.68979L0.356384 9.28463V9.28459ZM3.46063 7.91448L3.62966 7.99242C4.34338 8.3165 5.16168 8.48675 5.99615 8.48879H5.99882C8.5611 8.48879 10.6485 6.89512 10.6485 4.93429C10.6485 3.98466 10.1656 3.09243 9.28823 2.41968C8.41087 1.74694 7.24105 1.37774 5.99882 1.37774C3.43382 1.37774 1.34643 2.97142 1.34643 4.93225C1.34643 5.60295 1.59056 6.25724 2.05743 6.82331L2.16745 6.95869L1.6979 8.26931L3.46063 7.91448V7.91448Z" fill="white"/>
<path d="M4.60096 3.14165C4.49628 2.96319 4.38627 2.95907 4.28703 2.95703C4.20655 2.95499 4.11266 2.95499 4.01872 2.95499C3.92483 2.95499 3.77455 2.98165 3.64578 3.08829C3.51697 3.19497 3.15744 3.4534 3.15744 3.98055C3.15744 4.50559 3.65919 5.01425 3.72894 5.08603C3.79869 5.15784 4.69752 6.27155 6.11685 6.70024C7.29739 7.05714 7.53889 6.98533 7.79375 6.96688C8.05133 6.94842 8.62016 6.70844 8.73819 6.45821C8.85355 6.20799 8.85355 5.99467 8.81868 5.94955C8.7838 5.9044 8.68991 5.87778 8.55036 5.82442C8.41086 5.7711 7.724 5.51266 7.59524 5.47576C7.46643 5.43885 7.37253 5.42244 7.28132 5.52908C7.18738 5.63572 6.91911 5.8757 6.83858 5.94751C6.7581 6.01928 6.67494 6.02749 6.53539 5.97417C6.39589 5.92085 5.94514 5.80801 5.41124 5.44293C4.99536 5.15988 4.71364 4.80914 4.63311 4.7025C4.55263 4.59586 4.6251 4.53838 4.69485 4.48509C4.75653 4.4379 4.83435 4.35996 4.90414 4.29843C4.97389 4.23691 4.99803 4.19179 5.04364 4.11998C5.08925 4.04821 5.06778 3.98668 5.03291 3.93336C4.99803 3.88 4.72438 3.35289 4.60096 3.14165V3.14165Z" fill="white"/>
</g>
<defs>
<filter id="filter0_f" x="-5.70483" y="-5.37091" width="23.3806" height="20.7373" filterUnits="userSpaceOnUse" color-interpolation-filters="sRGB">
<feFlood flood-opacity="0" result="BackgroundImageFix"/>
<feBlend mode="normal" in="SourceGraphic" in2="BackgroundImageFix" result="shape"/>
<feGaussianBlur stdDeviation="3" result="effect1_foregroundBlur"/>
</filter>
<linearGradient id="paint0_linear" x1="5.97582" y1="9.13433" x2="5.97582" y2="0.802936" gradientUnits="userSpaceOnUse">
<stop stop-color="#20B038"/>
<stop offset="1" stop-color="#60D66A"/>
</linearGradient>
<clipPath id="clip0">
<rect width="12" height="9.2093" fill="white" transform="translate(0 0.372101)"/>
</clipPath>
</defs>
</svg>
